<svg xmlns="http://www.w3.org/2000/svg" viewBox="0 0 120 120">
  <defs>
    <linearGradient id="bg" x1="0" y1="0" x2="120" y2="120" gradientUnits="userSpaceOnUse">
      <stop offset="0%" stop-color="#f97316"/>
      <stop offset="50%" stop-color="#fb923c"/>
      <stop offset="100%" stop-color="#ea580c"/>
    </linearGradient>
    <linearGradient id="inner" x1="60" y1="10" x2="60" y2="110" gradientUnits="userSpaceOnUse">
      <stop offset="0%" stop-color="white" stop-opacity="0.15"/>
      <stop offset="100%" stop-color="black" stop-opacity="0.1"/>
    </linearGradient>
    <linearGradient id="leaf" x1="0" y1="0" x2="1" y2="1">
      <stop offset="0%" stop-color="#4ade80"/>
      <stop offset="100%" stop-color="#22c55e"/>
    </linearGradient>
    <linearGradient id="shine" x1="0" y1="0" x2="120" y2="120" gradientUnits="userSpaceOnUse">
      <stop offset="0%" stop-color="white" stop-opacity="0.25"/>
      <stop offset="40%" stop-color="white" stop-opacity="0"/>
    </linearGradient>
  </defs>
  <rect x="4" y="4" width="112" height="112" rx="28" fill="url(#bg)"/>
  <rect x="4" y="4" width="112" height="112" rx="28" fill="url(#inner)"/>
  <rect x="4" y="4" width="112" height="112" rx="28" stroke="white" stroke-opacity="0.1" stroke-width="1" fill="none"/>
  <rect x="14" y="14" width="92" height="92" rx="20" fill="black" fill-opacity="0.12"/>
  <g transform="translate(60,60)">
    <rect x="-8" y="-32" width="4.5" height="10" rx="2" fill="white"/>
    <rect x="3.5" y="-32" width="4.5" height="10" rx="2" fill="white"/>
    <rect x="-8" y="22" width="4.5" height="10" rx="2" fill="white"/>
    <rect x="3.5" y="22" width="4.5" height="10" rx="2" fill="white"/>
    <path d="M-14,-22 L-14,22 L6,22 C16,22 22,16 22,10 C22,4 18,0 12,0 C17,-1 20,-5 20,-10 C20,-17 14,-22 5,-22 Z M-4,-14 L3,-14 C8,-14 11,-11 11,-8 C11,-5 8,-2 3,-2 L-4,-2 Z M-4,6 L4,6 C10,6 13,9 13,12 C13,15 10,18 4,18 L-4,18 Z" fill="white" fill-rule="evenodd"/>
  </g>
  <g transform="translate(88,22)">
    <path d="M0,12 C0,12 2,4 8,0 C8,0 6,8 0,12Z" fill="url(#leaf)" opacity="0.9"/>
    <path d="M2,14 C2,14 -2,6 -6,4 C-6,4 0,6 2,14Z" fill="url(#leaf)" opacity="0.7"/>
  </g>
  <rect x="4" y="4" width="112" height="112" rx="28" fill="url(#shine)"/>
</svg>
